<?xml version="1.0" encoding="UTF-8"?>
<svg version="1.1" xmlns="http://www.w3.org/2000/svg" width="404" height="316">
<path d="M0 0 C133.32 0 266.64 0 404 0 C404 104.28 404 208.56 404 316 C270.68 316 137.36 316 0 316 C0 211.72 0 107.44 0 0 Z " fill="#161014" transform="translate(0,0)"/>
<path d="M0 0 C1.19009674 0.01273453 2.38019348 0.02546906 3.60635376 0.03858948 C7.3985172 0.08887587 11.18585194 0.20177655 14.9765625 0.31640625 C17.55071202 0.36155825 20.12493674 0.40262154 22.69921875 0.43945312 C29.00164074 0.5385527 35.30125673 0.68904464 41.6015625 0.87890625 C40.211516 4.45143353 38.66621741 7.60114118 36.6328125 10.85546875 C36.06175781 11.77328125 35.49070312 12.69109375 34.90234375 13.63671875 C34.30808594 14.58289063 33.71382813 15.5290625 33.1015625 16.50390625 C32.50730469 17.4578125 31.91304688 18.41171875 31.30078125 19.39453125 C29.10372546 22.9157719 26.90392701 26.42535949 24.6015625 29.87890625 C26.18239624 29.800354 26.18239624 29.800354 27.79516602 29.72021484 C31.72853703 29.53836782 35.66154336 29.424132 39.59790039 29.32958984 C41.29677915 29.27948496 42.99523051 29.21137279 44.69262695 29.12451172 C58.65351822 28.42831004 58.65351822 28.42831004 63.02807617 31.68579102 C64.90119764 34.31712517 66.22861735 36.95642379 67.6015625 39.87890625 C68.92881158 42.03094941 70.27757688 44.16983112 71.64453125 46.296875 C73.02922933 48.55143072 74.41070403 50.80796913 75.7890625 53.06640625 C76.49387945 54.2143531 77.19895657 55.36214026 77.90429688 56.50976562 C81.22059162 61.92122661 84.50014337 67.34123023 87.6015625 72.87890625 C81.30027694 73.93673864 74.77349933 75.00561875 68.6015625 72.87890625 C64.47972355 69.32895108 62.26160684 64.51954784 59.92578125 59.6953125 C59.53777344 58.90608398 59.14976562 58.11685547 58.75 57.30371094 C57.6015625 54.87890625 57.6015625 54.87890625 56.625 52.32128906 C55.23591935 49.40259368 54.18899885 47.84788619 51.6015625 45.87890625 C46.28602132 44.60484927 41.22897222 44.41544593 35.78027344 44.48583984 C33.23319044 44.50385936 30.70854142 44.40486742 28.1640625 44.296875 C20.08387319 43.95877483 20.08387319 43.95877483 13.01501465 47.22595215 C10.09869678 50.75229072 8.26206653 54.64066034 6.6015625 58.87890625 C8.18239624 58.800354 8.18239624 58.800354 9.79516602 58.72021484 C13.72853703 58.53836782 17.66154336 58.424132 21.59790039 58.32958984 C23.29677915 58.27948496 24.99523051 58.21137279 26.69262695 58.12451172 C40.76956464 57.42252304 40.76956464 57.42252304 45.28076172 61.00878906 C48.07014043 64.89096552 49.44257955 68.24297445 50.6015625 72.87890625 C27.1715625 72.87890625 3.7415625 72.87890625 -20.3984375 72.87890625 C-18.89326369 69.11597172 -17.50910216 66.2361047 -15.39453125 62.8671875 C-14.81896484 61.94486328 -14.24339844 61.02253906 -13.65039062 60.07226562 C-13.05162109 59.12158203 -12.45285156 58.17089844 -11.8359375 57.19140625 C-10.64647383 55.29208083 -9.45763971 53.39236096 -8.26953125 51.4921875 C-7.74286865 50.65469971 -7.21620605 49.81721191 -6.67358398 48.9543457 C-5.38490393 46.92448982 -5.38490393 46.92448982 -4.3984375 44.87890625 C-14.37029824 43.60926962 -14.37029824 43.60926962 -23.18652344 47.43359375 C-27.72024888 53.01873976 -31.08266632 59.56825617 -33.73046875 66.23046875 C-35.7561412 70.93219679 -35.7561412 70.93219679 -38.3984375 72.87890625 C-44.66313089 74.06864463 -51.09412957 73.44067626 -57.3984375 72.87890625 C-51.8895034 62.91862712 -45.91659415 53.35335165 -39.67626953 43.83837891 C-37.29037444 40.17976332 -34.96753747 36.48149567 -32.640625 32.78515625 C-31.3984375 30.87890625 -31.3984375 30.87890625 -30.3984375 29.87890625 C-27.65949665 29.79031979 -24.9459048 29.76367146 -22.20703125 29.78125 C-21.38719254 29.78266495 -20.56735382 29.7840799 -19.72267151 29.78553772 C-17.09372368 29.79115336 -14.46485977 29.80370846 -11.8359375 29.81640625 C-10.05794393 29.82141924 -8.27994904 29.82598249 -6.50195312 29.83007812 C-2.13408205 29.84112786 2.23372598 29.85840294 6.6015625 29.87890625 C7.5915625 27.40390625 7.5915625 27.40390625 8.6015625 24.87890625 C10.5815625 21.57890625 12.5615625 18.27890625 14.6015625 14.87890625 C3.0515625 14.87890625 -8.4984375 14.87890625 -20.3984375 14.87890625 C-15.75312912 3.26563531 -12.92169742 -0.52184365 0 0 Z " fill="#FCFAFB" transform="translate(187.3984375,143.12109375)"/>
<path d="M0 0 C0.79899216 -0.01522705 1.59798431 -0.0304541 2.42118835 -0.04614258 C4.10968558 -0.06772069 5.79844947 -0.07345991 7.48706055 -0.06445312 C10.05911412 -0.0625114 12.61913322 -0.14558168 15.18945312 -0.234375 C26.96082948 -0.41546424 26.96082948 -0.41546424 31.2019043 2.77075195 C33.07346505 5.39370614 34.39415275 8.02112715 35.76171875 10.9375 C37.08893159 13.08956552 38.43771695 15.22843527 39.8046875 17.35546875 C41.18938558 19.61002447 42.57086028 21.86656288 43.94921875 24.125 C44.6540357 25.27294685 45.35911282 26.42073401 46.06445312 27.56835938 C49.38074787 32.97982036 52.66029962 38.39982398 55.76171875 43.9375 C49.46043319 44.99533239 42.93365558 46.0642125 36.76171875 43.9375 C32.6398798 40.38754483 30.42176309 35.57814159 28.0859375 30.75390625 C27.69728516 29.96508057 27.30863281 29.17625488 26.90820312 28.36352539 C25.76171875 25.9375 25.76171875 25.9375 24.80273438 23.36889648 C23.19751597 19.94422685 21.77650863 17.47823591 17.93771362 16.44796753 C12.27899538 15.62234606 6.58914617 15.77967552 0.88671875 15.875 C-0.8685015 15.87192351 -2.62371961 15.86480458 -4.37890625 15.85351562 C-8.66675364 15.83472266 -12.95093892 15.87123358 -17.23828125 15.9375 C-16.49171357 14.56063338 -15.74082097 13.18611165 -14.98828125 11.8125 C-14.570625 11.04679688 -14.15296875 10.28109375 -13.72265625 9.4921875 C-12.98789063 8.22761719 -12.98789063 8.22761719 -12.23828125 6.9375 C-11.69147705 5.86628906 -11.14467285 4.79507813 -10.58129883 3.69140625 C-7.40797476 -0.0384151 -4.61920069 0.0024269 0 0 Z " fill="#FBF9FA" transform="translate(219.23828125,172.0625)"/>
<path d="M0 0 C0.79764267 0.00141495 1.59528534 0.0028299 2.417099 0.00428772 C4.9747181 0.00990309 7.53225093 0.02245813 10.08984375 0.03515625 C11.8196602 0.04016927 13.54947801 0.04473252 15.27929688 0.04882812 C19.52867928 0.0598775 23.77799687 0.07715239 28.02734375 0.09765625 C26.40779566 3.45622728 24.72667149 6.77886393 23.02734375 10.09765625 C22.57113647 11.09962036 22.57113647 11.09962036 22.10571289 12.12182617 C21.25 13.765625 21.25 13.765625 19.02734375 16.09765625 C15.99197016 16.08863135 13.43182992 15.8475573 10.46484375 15.41015625 C6.26504437 15.0774405 2.60181581 14.81498804 -0.79052734 17.57861328 C-5.40031919 23.13652832 -8.65575497 29.7705439 -11.30078125 36.453125 C-13.33639522 41.15539326 -13.33639522 41.15539326 -15.97265625 43.09765625 C-22.23734964 44.28739463 -28.66834832 43.65942626 -34.97265625 43.09765625 C-29.46372215 33.13737712 -23.4908129 23.57210165 -17.25048828 14.05712891 C-14.86459319 10.39851332 -12.54175622 6.70024567 -10.21484375 3.00390625 C-7.60004993 -1.00873333 -4.44844653 -0.02934917 0 0 Z " fill="#FBF9FA" transform="translate(164.97265625,172.90234375)"/>
<path d="M0 0 C2.82533724 2.66541966 4.95510896 5.25859443 6.9453125 8.58984375 C7.46480469 9.45673828 7.98429687 10.32363281 8.51953125 11.21679688 C9.04933594 12.11462891 9.57914063 13.01246094 10.125 13.9375 C10.66253906 14.83146484 11.20007813 15.72542969 11.75390625 16.64648438 C14.19931012 20.75366519 16.21246236 24.5311559 18 29 C6.45 29 -5.1 29 -17 29 C-15.3923234 24.98080851 -13.80482531 21.87713842 -11.5234375 18.26171875 C-10.853125 17.19501953 -10.1828125 16.12832031 -9.4921875 15.02929688 C-8.79351562 13.92650391 -8.09484375 12.82371094 -7.375 11.6875 C-6.66108421 10.55427206 -5.94753875 9.42081074 -5.234375 8.28710938 C-3.49321083 5.52242302 -1.74830945 2.76017131 0 0 Z " fill="#F6F4F5" transform="translate(202,101)"/>
<path d="M0 0 C1.41891872 0.0961203 2.83720294 0.21198495 4.25 0.375 C3.10605098 2.35525639 1.95978896 4.33417678 0.8125 6.3125 C0.17441406 7.41464844 -0.46367187 8.51679688 -1.12109375 9.65234375 C-2.75 12.375 -2.75 12.375 -3.75 13.375 C9.615 13.87 9.615 13.87 23.25 14.375 C23.25 14.705 23.25 15.035 23.25 15.375 C11.04 15.375 -1.17 15.375 -13.75 15.375 C-12.1 12.405 -10.45 9.435 -8.75 6.375 C-8.1725 5.199375 -7.595 4.02375 -7 2.8125 C-4.34764197 -0.06088786 -3.74642404 0.01756136 0 0 Z " fill="#9A9A9A" transform="translate(215.75,172.625)"/>
<path d="M0 0 C1.19625 0.185625 2.3925 0.37125 3.625 0.5625 C2.88034033 2.10675325 2.12896805 3.64777006 1.375 5.1875 C0.95734375 6.04601562 0.5396875 6.90453125 0.109375 7.7890625 C-0.38046875 8.70429688 -0.8703125 9.61953125 -1.375 10.5625 C-1.9009375 11.6659375 -2.426875 12.769375 -2.96875 13.90625 C-5.66886079 16.88689179 -5.93138814 16.95110881 -9.703125 16.9296875 C-11.3465971 16.79714943 -12.98769614 16.63192983 -14.625 16.4375 C-15.46546875 16.36273438 -16.3059375 16.28796875 -17.171875 16.2109375 C-19.24231201 16.02271595 -21.30921142 15.79628266 -23.375 15.5625 C-23.375 15.2325 -23.375 14.9025 -23.375 14.5625 C-19.745 14.5625 -16.115 14.5625 -12.375 14.5625 C-11.715 12.9125 -11.055 11.2625 -10.375 9.5625 C-5.58158995 -0.03958574 -5.58158995 -0.03958574 0 0 Z " fill="#AAAAAA" transform="translate(189.375,172.4375)"/>
<path d="M0 0 C2.475 0.99 2.475 0.99 5 2 C5 2.99 5 3.98 5 5 C13.25 5.33 21.5 5.66 30 6 C30 6.33 30 6.66 30 7 C18.12 7 6.24 7 -6 7 C-4 2 -4 2 -2 1 C-1.34 1.33 -0.68 1.66 0 2 C0 1.34 0 0.68 0 0 Z " fill="#262225" transform="translate(218,166)"/>
<path d="M0 0 C1 3 1 3 -0.390625 5.69921875 C-4.15841717 9.02141874 -6.95706285 8.36491979 -11.75 7.8125 C-12.54277344 7.74224609 -13.33554688 7.67199219 -14.15234375 7.59960938 C-16.10383193 7.42327008 -18.05236451 7.2147502 -20 7 C-20 6.67 -20 6.34 -20 6 C-16.37 6 -12.74 6 -9 6 C-9 5.34 -9 4.68 -9 4 C-7.6078125 3.566875 -7.6078125 3.566875 -6.1875 3.125 C-2.90208333 2.1125 -2.90208333 2.1125 0 0 Z " fill="#8B8B8B" transform="translate(186,181)"/>
</svg>
